# xmcd
#
# Track frame offsets:
#	150
#	19137
#	40022
#	59215
#	78060
#	91782
#	112377
#	131307
#	145632
#	164040
#	186685
#	206530
#
# Disc length: 3012 seconds
#
# Revision: 1
# Processed by: cddbd v1.5.1PL0 Copyright (c) Steve Scherf et al.
# Submitted via: CDex 1.50Beta5
#
DISCID=aa0bc20c
DTITLE=早見優 - YU’S BEAT
DYEAR=1995
DGENRE=Pop
TTITLE0=ハートは戻らない
TTITLE1=COVER UP
TTITLE2=Burning illusion
TTITLE3=素顔でニュートラル!
TTITLE4=PASSION
TTITLE5=Tokio Express
TTITLE6=FORBIDDEN LOVE
TTITLE7=Tonight
TTITLE8=Caribbean Night
TTITLE9=風になれ
TTITLE10=少しだけFRIDAY KISS
TTITLE11=西暦1986
EXTD=
EXTT0=
EXTT1=
EXTT2=
EXTT3=
EXTT4=
EXTT5=
EXTT6=
EXTT7=
EXTT8=
EXTT9=
EXTT10=
EXTT11=
PLAYORDER=
